<svg width="114" height="114" viewBox="0 0 114 114" fill="none" xmlns="http://www.w3.org/2000/svg">
<circle cx="57" cy="57" r="57" fill="#FFF0E6"/>
<path d="M57.992 46H58.01M42 52V69M50 52V69M66 52V69M74 52V69M38 49.14C38 46.746 38.964 45.28 40.96 44.168L49.18 39.594C53.486 37.2 55.64 36 58 36C60.36 36 62.514 37.2 66.82 39.594L75.04 44.168C77.034 45.28 78 46.746 78 49.14C78 49.788 78 50.114 77.93 50.38C77.558 51.78 76.288 52.002 75.062 52.002H40.938C39.712 52.002 38.444 51.782 38.07 50.38C38 50.112 38 49.788 38 49.14ZM72 69H44C42.4087 69 40.8826 69.6321 39.7574 70.7574C38.6321 71.8826 38 73.4087 38 75C38 75.2652 38.1054 75.5196 38.2929 75.7071C38.4804 75.8946 38.7348 76 39 76H77C77.2652 76 77.5196 75.8946 77.7071 75.7071C77.8946 75.5196 78 75.2652 78 75C78 73.4087 77.3679 71.8826 76.2426 70.7574C75.1174 69.6321 73.5913 69 72 69Z" stroke="#FC8A22" stroke-width="3" stroke-linecap="round" stroke-linejoin="round"/>
</svg>
