<svg width="114" height="114" viewBox="0 0 114 114" fill="none" xmlns="http://www.w3.org/2000/svg">
<circle cx="57" cy="57" r="57" fill="#FFF0E6"/>
<path d="M47 61.584H51C51.5304 61.584 52.0391 61.3689 52.4142 60.986C52.7893 60.6031 53 60.0838 53 59.5423C53 59.0008 52.7893 58.4815 52.4142 58.0986C52.0391 57.7158 51.5304 57.5006 51 57.5006H47C46.4696 57.5006 45.9609 57.7158 45.5858 58.0986C45.2107 58.4815 45 59.0008 45 59.5423C45 60.0838 45.2107 60.6031 45.5858 60.986C45.9609 61.3689 46.4696 61.584 47 61.584ZM59 65.6673H47C46.4696 65.6673 45.9609 65.8824 45.5858 66.2653C45.2107 66.6482 45 67.1675 45 67.709C45 68.2505 45.2107 68.7698 45.5858 69.1527C45.9609 69.5355 46.4696 69.7506 47 69.7506H59C59.5304 69.7506 60.0391 69.5355 60.4142 69.1527C60.7893 68.7698 61 68.2505 61 67.709C61 67.1675 60.7893 66.6482 60.4142 66.2653C60.0391 65.8824 59.5304 65.6673 59 65.6673ZM71 37.084H43C41.4087 37.084 39.8826 37.7293 38.7574 38.878C37.6321 40.0266 37 41.5845 37 43.209V71.7923C37 73.4168 37.6321 74.9747 38.7574 76.1233C39.8826 77.272 41.4087 77.9173 43 77.9173H71C72.5913 77.9173 74.1174 77.272 75.2426 76.1233C76.3679 74.9747 77 73.4168 77 71.7923V43.209C77 41.5845 76.3679 40.0266 75.2426 38.878C74.1174 37.7293 72.5913 37.084 71 37.084ZM61 41.1673V47.8844L57.98 46.1694C57.676 45.9902 57.3311 45.8959 56.98 45.8959C56.6289 45.8959 56.284 45.9902 55.98 46.1694L53 47.8844V41.1673H61ZM73 71.7923C73 72.3338 72.7893 72.8531 72.4142 73.236C72.0391 73.6189 71.5304 73.834 71 73.834H43C42.4696 73.834 41.9609 73.6189 41.5858 73.236C41.2107 72.8531 41 72.3338 41 71.7923V43.209C41 42.6675 41.2107 42.1482 41.5858 41.7653C41.9609 41.3824 42.4696 41.1673 43 41.1673H49V51.3757C49.0021 51.7319 49.0955 52.0815 49.2709 52.3895C49.4464 52.6975 49.6977 52.9533 50 53.1315C50.304 53.3107 50.6489 53.405 51 53.405C51.3511 53.405 51.696 53.3107 52 53.1315L57 50.2936L62.02 53.1519C62.3189 53.3248 62.6564 53.4162 63 53.4173C63.5304 53.4173 64.0391 53.2022 64.4142 52.8193C64.7893 52.4364 65 51.9171 65 51.3757V41.1673H71C71.5304 41.1673 72.0391 41.3824 72.4142 41.7653C72.7893 42.1482 73 42.6675 73 43.209V71.7923Z" fill="#FC8A22"/>
</svg>
