<svg width="24" height="25" viewBox="0 0 24 25" fill="none" xmlns="http://www.w3.org/2000/svg">
<path d="M11.0833 10.0704C11.0833 14.6333 7.53889 19.4333 1.91667 20.5L1 18.6037C3.01667 17.8333 4.78889 15.2852 5.03333 13.5074C2.71111 13.1519 1 11.1963 1 8.94444C1 6.1 3.38333 4.5 5.76667 4.5C8.51667 4.5 11.0833 6.57407 11.0833 10.0704ZM23 10.0704C23 14.6333 19.4556 19.4333 13.8333 20.5L12.9167 18.6037C14.9333 17.8333 16.7056 15.2852 16.95 13.5074C14.6278 13.1519 12.9167 11.1963 12.9167 8.94444C12.9167 6.1 15.3 4.5 17.6833 4.5C20.4333 4.5 23 6.57407 23 10.0704Z" fill="black"/>
</svg>
