<svg width="943" height="619" viewBox="0 0 943 619" fill="none" xmlns="http://www.w3.org/2000/svg">
<g opacity="0.1">
<path d="M371.15 -189.381C346.224 -254.235 222.907 -286.261 243.257 -157.131C246.593 -135.958 246.929 -99.4999 243.257 -55.123C239.892 -14.4713 174.036 7.77223 153.82 60.2986C122.116 142.676 240.656 200.093 221.792 243.397C197.085 300.115 121.433 324.723 79.5882 355.753C40.1955 384.965 15.1036 431.836 5.46926 480.025C-11.433 564.566 19.2405 653.162 103.736 657.57C146.034 659.776 201.819 640.886 271.876 589.828C303.199 567 330.818 548.187 355.365 532.975C418.545 493.822 401.559 586.434 476.685 589.828C519.492 591.762 564.201 511.81 598.046 554.457C622.112 584.781 649.729 621.575 689.168 659.403C758.43 725.835 845.026 735.616 857.274 640.804C863.056 596.048 852.271 527.984 815.273 431.57C791.597 369.87 850.489 372.045 857.274 292.98C864.06 213.915 808.573 177.453 848.74 144.729L849.545 144.073C880.16 119.134 912.813 92.5345 930.646 41.4453C946.007 -2.56297 944.539 -46.1502 930.646 -79.6426C915.777 -115.487 886.676 -139.769 848.74 -140.63C810.676 -141.494 763.717 -118.78 713.316 -60.5073C680.085 -22.0873 657.581 -111.485 598.046 -102.346C538.512 -93.2076 530.237 -6.95029 494.572 -31.9684C432.62 -75.4267 400.344 -113.425 371.15 -189.381Z" stroke="#FC8A22" stroke-width="2"/>
<path d="M491.402 164.383C487.609 154.426 469.93 157.04 469.035 167.83C468.016 180.115 474.226 196.125 473.508 208.44C472.122 232.217 463.723 238.985 446.997 251.517C441.002 256.002 437.183 263.197 435.717 270.595C433.145 283.573 437.813 297.174 450.672 297.851C457.109 298.19 465.599 295.29 476.261 287.451C481.027 283.947 485.231 281.059 488.966 278.724C505.229 267.744 520.364 276.347 525.899 282.021C529.561 286.677 533.764 292.325 539.766 298.132C550.307 308.331 566.269 306.995 565.35 295.277C564.051 278.724 535.789 216.934 565.35 206.16C579.081 201.155 578.63 189.818 576.516 184.677C574.253 179.174 569.824 175.446 564.051 175.314C558.258 175.181 548.662 184.677 543.441 187.614C524.169 198.458 506.973 204.064 491.402 164.383Z" stroke="#FC8A22" stroke-width="2"/>
<path d="M263.875 -128.879C245.814 -246.432 358.506 -217.128 381.359 -157.674C409.337 -84.9876 440.269 -50.9215 498.391 -12.3608C531.079 10.2685 538.945 -68.4904 593.457 -77.0507C647.969 -85.611 668.795 -4.48671 699.294 -39.4359C745.679 -92.4413 788.808 -112.771 823.648 -111.488C858.261 -110.473 884.797 -88.0089 898.204 -55.027C910.724 -24.1848 911.757 15.8404 897.156 56.1057C878.1 103.967 850.581 133.758 822.632 158.116C786.127 188.417 836.271 221.886 829.625 293.868C822.978 365.851 768.791 363.672 789.854 419.347C822.972 506.543 832.403 567.958 826.809 608.259C815.413 694.264 736.151 685.043 672.539 624.468C636.062 589.917 610.221 556.495 587.584 529.401C556.45 490.81 515.388 563.813 476.005 562.37C407.164 559.636 422.184 475.618 364.311 511.39C341.589 525.38 316.119 542.554 287.327 563.308C222.414 609.7 171.232 625.66 132.98 622.481C56.1662 618.137 28.3773 537.202 43.9279 459.988C52.8657 415.849 75.9193 372.941 112.034 346.162C151.629 316.799 221.227 293.799 243.833 240.051C261.03 200.097 153.049 147.218 181.774 71.6314C200.046 23.2033 259.85 2.32739 262.957 -35.2126C266.339 -76.0743 266.456 -109.547 263.875 -128.879Z" stroke="#FC8A22" stroke-width="2"/>
<path d="M285.418 -99.4373C269.673 -205.028 371.574 -178.544 392.319 -124.684C419.043 -55.5129 448.585 -25.4901 502.791 8.04852C532.455 28.2153 539.9 -42.7866 589.311 -50.74C638.721 -58.6934 657.839 13.8922 685.562 -17.4717C727.861 -65.0364 767.099 -82.9155 798.662 -81.2193C829.902 -80.0532 853.835 -59.4818 865.761 -29.471C876.888 -1.38092 877.485 34.9501 863.666 71.34C843.569 115.367 821.642 148.224 796.632 171.726C763.842 199.505 808.57 229.869 802.073 294.533C795.575 359.196 746.172 357.021 764.591 406.49C793.779 484.182 801.842 538.75 796.445 574.463C785.917 651.38 714.105 642.75 656.237 588.231C622.776 557.071 598.747 527.13 577.573 503.353C549.194 468.945 511.839 534.759 475.938 533.81C413.484 531.744 426.515 456.595 374.034 488.869C353.169 501.591 329.886 517.07 303.666 535.682C243.993 577.256 197.488 590.235 163.338 586.098C94.3188 581.832 69.4552 508.823 83.6315 439.191C91.8596 399.247 112.841 360.444 145.626 336.184C182.914 308.588 246.356 287.273 266.828 236.675C282.332 200.202 185.067 152.038 210.772 83.4905C227.074 39.3207 280.736 19.8823 283.582 -14.4217C286.669 -51.6333 287.238 -82.0099 285.418 -99.4373Z" stroke="#FC8A22" stroke-width="2"/>
<path d="M306.032 -71.1835C292.579 -165.197 383.847 -141.435 402.517 -92.9759C428.027 -27.0752 456.226 -0.984818 506.602 27.6564C533.287 45.4345 540.324 -18.0688 584.709 -25.4438C629.094 -32.8188 646.532 31.4935 671.522 3.60042C709.802 -38.6971 745.207 -54.1915 773.544 -52.0769C801.459 -50.7566 822.826 -32.0034 833.288 -4.85518C843.04 20.5845 843.202 53.3532 830.142 86C808.972 126.351 792.605 162.381 770.496 185.11C741.371 210.466 780.751 237.837 774.392 295.417C768.033 352.997 723.338 350.818 739.141 394.263C764.445 462.737 771.152 510.657 765.941 541.913C756.266 610.024 691.794 601.954 639.579 553.292C609.082 525.409 586.828 498.84 567.083 478.293C541.417 447.942 507.711 506.806 475.237 506.348C419.073 504.941 430.135 438.387 382.963 467.279C363.925 478.779 342.793 492.619 319.104 509.157C264.577 546.066 222.679 556.115 192.578 551.005C131.247 546.804 109.27 481.456 122.094 419.152C129.625 383.257 148.568 348.417 178.073 326.59C213.111 300.662 270.495 280.956 288.866 233.328C302.701 200.205 216.003 156.58 238.726 94.8234C253.083 54.7523 300.687 36.6818 303.276 5.48984C306.072 -28.2063 307.096 -55.5973 306.032 -71.1835Z" stroke="#FC8A22" stroke-width="2"/>
<path d="M327.565 -42.9314C316.428 -125.365 396.9 -104.326 413.462 -61.2669C437.713 1.3688 464.519 23.5244 510.976 47.2649C534.634 62.6532 541.251 6.65051 580.531 -0.146355C619.812 -6.94322 635.541 49.0926 657.753 24.6715C691.945 -12.3571 723.456 -25.4654 748.516 -22.9313C773.055 -21.4563 791.818 -4.52127 800.799 19.7642C809.158 42.5533 808.885 71.7592 796.607 100.662C774.401 137.338 763.623 176.553 744.455 198.511C719.046 221.444 753.009 245.82 746.799 296.315C740.59 346.81 700.681 344.627 713.84 382.045C735.215 441.296 740.553 482.565 735.54 509.363C726.734 568.665 669.716 561.154 623.248 518.35C595.768 493.746 575.329 470.549 557.048 453.235C534.139 426.942 504.142 478.854 475.152 478.887C425.378 478.141 434.452 420.184 392.674 445.695C375.495 455.973 356.551 468.174 335.436 482.637C286.152 514.879 248.934 521.994 222.937 515.91C169.402 511.772 150.352 454.086 161.801 399.112C168.622 367.268 185.491 336.393 211.664 316.998C244.391 292.736 295.616 274.638 311.852 229.978C323.994 200.205 248.016 161.119 267.718 106.154C280.104 70.1819 321.565 53.4786 323.892 25.3987C326.393 -4.78181 327.869 -29.1867 327.565 -42.9314Z" stroke="#FC8A22" stroke-width="2"/>
<path d="M349.091 -13.3497C340.269 -84.0181 409.944 -65.7496 424.396 -28.1878C447.386 31.0408 472.794 49.2126 515.326 67.9998C535.958 80.9642 542.152 32.5872 576.327 26.3838C610.502 20.1804 624.52 67.8149 643.954 46.9203C674.057 15.2432 701.672 4.55007 723.454 7.49761C744.618 9.12389 760.776 24.2028 768.275 45.5711C775.242 65.6585 774.534 91.2361 763.04 116.33C739.805 149.249 734.611 191.557 718.382 212.694C696.69 233.154 725.236 254.481 719.177 297.778C713.119 341.074 677.999 338.893 688.515 370.2C705.961 420.096 709.933 454.623 705.117 476.903C697.182 527.263 647.619 520.329 606.899 483.479C582.439 462.207 563.816 442.436 547.002 428.391C526.851 406.216 500.565 451.06 475.06 451.584C431.677 451.5 438.764 402.269 402.381 424.341C387.063 433.375 370.309 443.909 351.769 456.265C307.731 483.768 275.194 487.934 253.3 480.89C207.563 476.825 191.439 426.931 201.512 379.41C207.622 351.687 222.417 324.845 245.257 307.927C275.669 285.386 320.733 268.937 334.833 227.345C345.281 200.989 280.026 166.53 296.706 118.48C307.121 86.6873 342.439 71.3889 344.505 46.484C346.71 19.8868 348.636 -1.47736 349.091 -13.3497Z" stroke="#FC8A22" stroke-width="2"/>
<path d="M369.684 14.9028C363.159 -44.179 422.182 -28.6348 434.555 3.52445C456.331 59.4936 480.395 73.7276 519.092 87.6095C536.739 98.1826 542.524 57.3095 571.665 51.684C600.805 46.0586 613.141 85.412 629.837 67.9911C655.914 41.5857 679.691 33.2806 698.24 36.6489C716.072 38.4304 729.66 51.6909 735.692 70.1958C741.281 87.632 740.137 109.646 729.404 130.995C705.091 160.237 705.47 205.743 692.147 226.113C674.127 244.15 697.314 262.481 691.394 298.689C685.474 334.897 655.07 332.711 662.964 357.987C676.518 398.655 679.131 426.526 674.503 444.344C667.421 485.889 625.211 479.515 590.155 448.526C568.663 430.534 551.818 414.137 536.435 403.328C519.001 385.213 496.371 423.103 474.298 424.119C437.216 424.696 442.33 384.068 411.267 402.757C397.777 410.568 383.178 419.462 367.174 429.742C328.29 452.575 300.368 453.804 282.531 445.783C244.497 441.78 231.265 399.552 239.983 359.364C245.396 335.693 258.148 312.817 277.702 298.332C305.862 277.456 344.858 262.615 356.852 223.987C365.629 200.982 310.959 171.064 324.652 129.808C333.119 102.115 362.367 88.1829 364.175 66.3905C366.09 43.3099 368.471 24.9327 369.684 14.9028Z" stroke="#FC8A22" stroke-width="2"/>
<path d="M391.182 43.1552C386.97 -4.33092 435.185 8.48745 445.446 35.2416C465.949 87.963 488.604 98.254 523.361 107.223C537.977 115.402 543.338 82.0378 567.367 76.9897C591.396 71.9416 602.018 103.006 615.932 89.0622C637.913 67.9327 657.788 62.0189 673.055 65.8102C687.51 67.748 698.49 79.1903 703.041 94.8307C707.237 109.615 705.66 128.063 695.716 145.665C670.392 171.233 676.34 219.961 665.958 239.568C651.657 255.183 669.426 270.518 663.66 299.631C657.895 328.745 632.287 326.553 637.539 345.792C647.166 377.221 648.414 398.429 643.985 411.781C637.777 444.503 603.031 438.687 573.731 413.564C555.265 398.853 540.243 385.834 526.332 378.264C511.661 364.214 492.746 395.144 474.165 396.655C443.482 397.895 446.61 365.878 420.949 381.181C409.324 387.769 396.917 395.022 383.492 403.225C349.867 421.384 326.632 419.668 312.9 410.665C282.668 406.723 272.363 372.166 279.704 339.316C284.403 319.698 295.079 300.791 311.296 288.74C337.129 269.526 369.953 256.292 379.81 220.622C386.891 200.968 342.952 175.592 353.622 141.133C360.118 117.54 383.219 104.973 384.765 86.2937C386.384 66.7304 389.213 51.3415 391.182 43.1552Z" stroke="#FC8A22" stroke-width="2"/>
<path d="M412.077 71.4015C410.16 35.5263 447.826 45.6161 456.032 66.9605C475.381 116.451 496.76 122.791 527.776 126.834C539.441 132.616 544.408 106.769 563.456 102.297C582.504 97.8259 591.47 120.59 602.677 110.127C620.683 94.2803 636.766 90.7631 648.834 94.9809C659.988 97.0766 668.42 106.7 671.513 119.475C674.338 131.606 672.317 146.486 663.104 160.337C636.615 182.232 648.183 234.22 640.688 253.072C630.03 266.263 642.473 278.6 636.827 300.61C631.181 322.619 610.23 320.421 612.864 333.611C618.611 355.786 618.497 370.32 614.242 379.197C608.871 403.082 581.401 397.824 557.697 378.573C542.155 367.148 528.87 357.512 516.352 353.188C504.364 343.21 489.061 367.173 473.868 369.179C449.418 371.087 450.574 347.692 430.175 359.607L429.607 359.917C419.953 365.187 409.857 370.699 399.147 376.704C370.593 390.182 351.92 385.51 342.22 375.516C319.63 371.634 312.199 344.756 318.202 319.251C322.216 303.692 330.873 288.756 343.84 279.142C367.495 261.585 394.328 249.956 402.101 217.236C407.525 200.934 374.081 180.102 381.784 152.445C386.342 132.954 403.419 121.751 404.711 106.185C406.043 90.1407 409.339 77.7421 412.077 71.4015Z" stroke="#FC8A22" stroke-width="2"/>
<path d="M433.523 101.021C433.917 76.9146 460.741 84.2314 466.827 100.072C484.879 146.108 504.82 148.469 531.859 147.57C540.482 150.929 545.019 132.713 558.937 128.839C572.856 124.964 580.098 139.327 588.512 132.392C602.404 121.898 614.57 120.792 623.345 125.417C631.111 127.661 636.929 135.423 638.538 145.275C639.969 154.699 637.519 165.946 629.107 175.984C601.647 194.107 618.757 249.117 614.209 267.128C607.278 277.838 614.294 287.121 608.811 301.93C603.327 316.74 587.193 314.545 587.187 321.63C589.006 334.455 587.529 342.251 583.48 346.614C578.988 361.558 559.008 356.881 541.083 343.588C528.584 335.498 517.138 329.287 506.107 328.227C496.893 322.365 485.321 339.255 473.634 341.749C455.607 344.313 454.779 329.644 439.801 338.117C431.851 342.234 423.773 346.177 415.442 350.192C392.177 358.931 378.21 351.325 372.62 340.386C357.851 336.581 353.352 317.501 357.971 299.455C361.268 288.022 367.839 277.124 377.458 269.989C398.755 254.169 419.389 244.197 425.018 214.574C428.743 201.697 406.057 185.502 410.731 164.77C413.316 149.468 424.233 139.678 425.262 127.295C426.296 114.842 430.034 105.488 433.523 101.021Z" stroke="#FC8A22" stroke-width="2"/>
<path d="M455.286 129.309C457.981 116.886 474.049 121.453 478.033 131.838C494.815 174.523 513.351 172.923 536.466 167.096C542.073 168.046 546.186 157.401 555.017 154.114C563.849 150.827 569.384 156.844 575.029 153.411C584.845 148.232 593.127 149.528 598.637 154.568C603.04 156.965 606.264 162.887 606.398 169.845C606.444 176.589 603.564 184.235 595.939 190.493C567.478 204.893 590.125 263.027 588.503 280.237C585.273 288.495 586.898 294.753 581.569 302.413C576.24 310.074 564.88 307.878 562.246 308.89C560.158 312.42 557.323 313.515 553.474 313.386C549.851 319.448 537.299 315.34 525.104 307.959C515.617 303.179 505.986 300.369 496.422 302.562C489.959 300.791 482.085 310.664 473.873 313.648C462.214 316.873 459.411 310.874 449.809 315.932C443.715 318.814 437.82 321.102 432.056 323.025C414.025 327.056 404.724 316.51 403.219 304.607C396.213 300.871 394.627 289.527 397.875 278.88C400.462 271.537 404.967 264.643 411.263 259.966C430.241 245.845 444.733 237.505 448.234 210.909C450.272 201.42 438.264 189.815 439.931 175.944C440.554 164.787 445.355 156.387 446.123 147.152C446.862 138.253 451.046 131.917 455.286 129.309Z" stroke="#FC8A22" stroke-width="2"/>
</g>
</svg>
