<svg width="114" height="114" viewBox="0 0 114 114" fill="none" xmlns="http://www.w3.org/2000/svg">
<circle cx="57" cy="57" r="57" fill="#FFF0E6"/>
<path d="M54.92 42L56 40.82V48C56 48.5304 56.2107 49.0391 56.5858 49.4142C56.9609 49.7893 57.4696 50 58 50C58.5304 50 59.0391 49.7893 59.4142 49.4142C59.7893 49.0391 60 48.5304 60 48V40.82L61.08 41.92C61.2615 42.125 61.4833 42.2906 61.7314 42.4065C61.9796 42.5223 62.2489 42.586 62.5226 42.5935C62.7964 42.601 63.0688 42.5522 63.3229 42.4501C63.577 42.348 63.8075 42.1948 64 42C64.1875 41.8141 64.3362 41.5929 64.4378 41.3492C64.5393 41.1054 64.5916 40.844 64.5916 40.58C64.5916 40.316 64.5393 40.0546 64.4378 39.8108C64.3362 39.5671 64.1875 39.3459 64 39.16L59.42 34.58C59.2298 34.3979 59.0055 34.2552 58.76 34.16C58.2731 33.96 57.7269 33.96 57.24 34.16C56.9945 34.2552 56.7702 34.3979 56.58 34.58L52 39.08C51.6128 39.4672 51.3952 39.9924 51.3952 40.54C51.3952 41.0876 51.6128 41.6128 52 42C52.3872 42.3872 52.9124 42.6048 53.46 42.6048C54.0076 42.6048 54.5328 42.3872 54.92 42ZM58 54C56.8133 54 55.6533 54.3519 54.6666 55.0112C53.6799 55.6705 52.9108 56.6075 52.4567 57.7039C52.0026 58.8003 51.8838 60.0067 52.1153 61.1705C52.3468 62.3344 52.9182 63.4035 53.7574 64.2426C54.5965 65.0818 55.6656 65.6532 56.8295 65.8847C57.9933 66.1162 59.1997 65.9974 60.2961 65.5433C61.3925 65.0892 62.3295 64.3201 62.9888 63.3334C63.6481 62.3467 64 61.1867 64 60C64 58.4087 63.3679 56.8826 62.2426 55.7574C61.1174 54.6321 59.5913 54 58 54ZM58 62C57.6044 62 57.2178 61.8827 56.8889 61.6629C56.56 61.4432 56.3036 61.1308 56.1522 60.7654C56.0009 60.3999 55.9613 59.9978 56.0384 59.6098C56.1156 59.2219 56.3061 58.8655 56.5858 58.5858C56.8655 58.3061 57.2219 58.1156 57.6098 58.0384C57.9978 57.9613 58.3999 58.0009 58.7654 58.1522C59.1308 58.3036 59.4432 58.56 59.6629 58.8889C59.8827 59.2178 60 59.6044 60 60C60 60.5304 59.7893 61.0391 59.4142 61.4142C59.0391 61.7893 58.5304 62 58 62ZM44 60C44 60.3956 44.1173 60.7822 44.3371 61.1111C44.5568 61.44 44.8692 61.6964 45.2346 61.8478C45.6001 61.9991 46.0022 62.0387 46.3902 61.9616C46.7781 61.8844 47.1345 61.6939 47.4142 61.4142C47.6939 61.1345 47.8844 60.7781 47.9616 60.3902C48.0387 60.0022 47.9991 59.6001 47.8478 59.2346C47.6964 58.8692 47.44 58.5568 47.1111 58.3371C46.7822 58.1173 46.3956 58 46 58C45.4696 58 44.9609 58.2107 44.5858 58.5858C44.2107 58.9609 44 59.4696 44 60ZM72 60C72 59.6044 71.8827 59.2178 71.6629 58.8889C71.4432 58.56 71.1308 58.3036 70.7654 58.1522C70.3999 58.0009 69.9978 57.9613 69.6098 58.0384C69.2219 58.1156 68.8655 58.3061 68.5858 58.5858C68.3061 58.8655 68.1156 59.2219 68.0384 59.6098C67.9613 59.9978 68.0009 60.3999 68.1522 60.7654C68.3036 61.1308 68.56 61.4432 68.8889 61.6629C69.2178 61.8827 69.6044 62 70 62C70.5304 62 71.0391 61.7893 71.4142 61.4142C71.7893 61.0391 72 60.5304 72 60ZM74 46H66C65.4696 46 64.9609 46.2107 64.5858 46.5858C64.2107 46.9609 64 47.4696 64 48C64 48.5304 64.2107 49.0391 64.5858 49.4142C64.9609 49.7893 65.4696 50 66 50H74C74.5304 50 75.0391 50.2107 75.4142 50.5858C75.7893 50.9609 76 51.4696 76 52V68C76 68.5304 75.7893 69.0391 75.4142 69.4142C75.0391 69.7893 74.5304 70 74 70H42C41.4696 70 40.9609 69.7893 40.5858 69.4142C40.2107 69.0391 40 68.5304 40 68V52C40 51.4696 40.2107 50.9609 40.5858 50.5858C40.9609 50.2107 41.4696 50 42 50H50C50.5304 50 51.0391 49.7893 51.4142 49.4142C51.7893 49.0391 52 48.5304 52 48C52 47.4696 51.7893 46.9609 51.4142 46.5858C51.0391 46.2107 50.5304 46 50 46H42C40.4087 46 38.8826 46.6321 37.7574 47.7574C36.6321 48.8826 36 50.4087 36 52V68C36 69.5913 36.6321 71.1174 37.7574 72.2426C38.8826 73.3679 40.4087 74 42 74H74C75.5913 74 77.1174 73.3679 78.2426 72.2426C79.3679 71.1174 80 69.5913 80 68V52C80 50.4087 79.3679 48.8826 78.2426 47.7574C77.1174 46.6321 75.5913 46 74 46Z" fill="#FC8A22"/>
</svg>
