<svg width="53" height="53" viewBox="0 0 53 53" fill="none" xmlns="http://www.w3.org/2000/svg">
<path d="M39.9149 3.43164L49.1302 13.0379V49.5681H14.7051V49.6874H49.2478V13.1588L39.9149 3.43164Z" fill="#909090"/>
<path d="M39.801 3.3125H14.5879V49.5682H49.1306V13.0397L39.801 3.3125Z" fill="#F4F4F4"/>
<path d="M14.3354 5.79688H3.75195V17.1041H37.0426V5.79688H14.3354Z" fill="#7A7B7C"/>
<path d="M37.2193 16.9112H3.9668V5.5957H37.2193V16.9112Z" fill="#DD2025"/>
<path d="M14.9928 7.50942H12.8281V15.4594H14.5307V12.7779L14.9067 12.7995C15.2722 12.7944 15.6343 12.729 15.9783 12.6057C16.2808 12.503 16.5588 12.3389 16.7948 12.1237C17.0369 11.9207 17.2271 11.663 17.3497 11.3718C17.5174 10.8894 17.5767 10.3759 17.5236 9.86792C17.5142 9.50496 17.4505 9.14544 17.3348 8.80129C17.2305 8.55254 17.0754 8.3283 16.8795 8.14292C16.6836 7.95754 16.4511 7.8151 16.1969 7.72473C15.9778 7.64359 15.7508 7.58585 15.5195 7.55248C15.3448 7.52404 15.1682 7.50964 14.9912 7.50942M14.6782 11.3089H14.5307V8.85761H14.8504C14.9915 8.84743 15.133 8.86909 15.2646 8.92098C15.3962 8.97287 15.5145 9.05366 15.6106 9.15739C15.8099 9.42407 15.9164 9.74867 15.9137 10.0816C15.9137 10.489 15.9137 10.8584 15.546 11.1184C15.2812 11.2643 14.9796 11.3315 14.6782 11.3089ZM20.7582 7.48789C20.5744 7.48789 20.3955 7.50114 20.2697 7.50611L19.8755 7.51604H18.5836V15.466H20.104C20.685 15.481 21.2633 15.3825 21.8067 15.1762C22.2441 15.0034 22.6313 14.7239 22.9329 14.363C23.2285 14.0005 23.4395 13.5767 23.5507 13.1224C23.6813 12.6089 23.7448 12.0806 23.7395 11.5507C23.7719 10.9249 23.7235 10.2975 23.5954 9.68407C23.4728 9.23306 23.2459 8.81719 22.9329 8.47004C22.6874 8.18933 22.3855 7.96357 22.0468 7.80754C21.7567 7.67306 21.4514 7.57407 21.1375 7.51273C21.0127 7.49227 20.8864 7.48285 20.7599 7.48457M20.4585 14.0052H20.2928V8.93048H20.3144C20.6558 8.891 21.0014 8.95262 21.3081 9.1077C21.5328 9.28712 21.7159 9.51315 21.8447 9.7702C21.9838 10.0407 22.064 10.3376 22.0799 10.6414C22.0948 11.0058 22.0799 11.3039 22.0799 11.5507C22.0861 11.8349 22.0678 12.1192 22.0253 12.4003C21.9732 12.6886 21.8789 12.9677 21.7454 13.2284C21.5946 13.4717 21.3886 13.6759 21.1442 13.8247C20.94 13.9572 20.6979 14.0189 20.4552 14.0003M28.8689 7.51604H24.8442V15.466H26.5468V12.3125H28.7V10.8352H26.5468V8.99342H28.8656V7.51604" fill="#464648"/>
<path d="M36.0748 33.5474C36.0748 33.5474 41.3549 32.5901 41.3549 34.3937C41.3549 36.1974 38.0838 35.4637 36.0748 33.5474ZM32.171 33.6848C31.3319 33.8697 30.5143 34.1411 29.7313 34.4948L30.3938 33.0041C31.0563 31.5135 31.7437 29.4813 31.7437 29.4813C32.5322 30.8131 33.4522 32.0626 34.4897 33.2112C33.7086 33.3275 32.9346 33.4868 32.171 33.6882V33.6848ZM30.0808 22.9192C30.0808 21.3474 30.5893 20.9185 30.9851 20.9185C31.3809 20.9185 31.8265 21.1089 31.8414 22.4737C31.7122 23.846 31.4249 25.1987 30.9851 26.505C30.3806 25.409 30.0686 24.1758 30.0791 22.9242L30.0808 22.9192ZM22.3809 40.3363C20.7611 39.3674 25.7779 36.3845 26.6871 36.2885C26.6822 36.2901 24.0769 41.35 22.3809 40.3363ZM42.8969 34.6074C42.8803 34.4418 42.7312 32.6083 39.4684 32.6861C38.1084 32.6623 36.7489 32.7582 35.4056 32.9727C34.1036 31.6621 32.9829 30.1832 32.0733 28.5753C32.646 26.9179 32.9931 25.1909 33.1051 23.4409C33.0571 21.4534 32.5817 20.3139 31.058 20.3305C29.5342 20.3471 29.3123 21.6803 29.5127 23.6645C29.7088 24.9979 30.0791 26.2998 30.6141 27.5368C30.6141 27.5368 29.9102 29.7281 28.9794 31.9077C28.0486 34.0873 27.4126 35.2301 27.4126 35.2301C25.7937 35.7565 24.2699 36.5393 22.8993 37.5489C21.5345 38.8192 20.9797 39.7948 21.6985 40.7703C22.3179 41.6117 24.486 41.8021 26.4238 39.2631C27.4516 37.9504 28.3922 36.5716 29.2394 35.1357C29.2394 35.1357 32.1942 34.3258 33.1134 34.1039C34.0326 33.8819 35.1439 33.7064 35.1439 33.7064C35.1439 33.7064 37.842 36.421 40.4439 36.3249C43.0459 36.2288 42.92 34.7697 42.9035 34.6107" fill="#DD2025"/>
<path d="M39.6738 3.43945V13.1666H49.0035L39.6738 3.43945Z" fill="#909090"/>
<path d="M39.8008 3.3125V13.0397H49.1304L39.8008 3.3125Z" fill="#F4F4F4"/>
<path d="M14.8639 7.38247H12.6992V15.3325H14.4085V12.6527L14.7861 12.6742C15.1515 12.6691 15.5136 12.6037 15.8577 12.4804C16.1602 12.3777 16.4381 12.2136 16.6742 11.9984C16.9145 11.7949 17.103 11.5372 17.2241 11.2465C17.3918 10.7641 17.4512 10.2506 17.398 9.74262C17.3886 9.37966 17.3249 9.02015 17.2092 8.676C17.1049 8.42724 16.9498 8.203 16.7539 8.01762C16.558 7.83224 16.3255 7.68981 16.0713 7.59943C15.8512 7.5175 15.6231 7.4592 15.3906 7.42553C15.2159 7.39708 15.0393 7.38268 14.8623 7.38247M14.5492 11.1819H14.4018V8.73065H14.7232C14.8642 8.72048 15.0058 8.74214 15.1374 8.79403C15.269 8.84591 15.3872 8.92671 15.4834 9.03043C15.6827 9.29712 15.7891 9.62172 15.7865 9.95462C15.7865 10.3621 15.7865 10.7314 15.4188 10.9914C15.154 11.1373 14.8524 11.2029 14.5509 11.1802M20.6293 7.36093C20.4455 7.36093 20.2666 7.37418 20.1407 7.37915L19.7515 7.38909H18.4597V15.3391H19.9801C20.5611 15.354 21.1394 15.2556 21.6827 15.0492C22.1202 14.8765 22.5074 14.5969 22.809 14.236C23.1045 13.8736 23.3156 13.4498 23.4267 12.9955C23.5574 12.4819 23.6208 11.9536 23.6156 11.4237C23.648 10.7979 23.5996 10.1705 23.4715 9.55712C23.3489 9.10611 23.1219 8.69024 22.809 8.34309C22.5635 8.06237 22.2616 7.83662 21.9229 7.68059C21.6327 7.5461 21.3274 7.44712 21.0136 7.38578C20.8888 7.36532 20.7624 7.3559 20.636 7.35762M20.3345 13.8783H20.1689V8.80353H20.1904C20.5319 8.76405 20.8774 8.82567 21.1842 8.98075C21.4089 9.16016 21.592 9.3862 21.7208 9.64325C21.8599 9.91377 21.94 10.2107 21.956 10.5144C21.9709 10.8788 21.956 11.1769 21.956 11.4237C21.9621 11.708 21.9438 11.9922 21.9013 12.2734C21.8492 12.5617 21.7549 12.8407 21.6214 13.1015C21.4706 13.3447 21.2647 13.549 21.0202 13.6977C20.816 13.8303 20.5739 13.8919 20.3312 13.8733M28.74 7.38909H24.7153V15.3391H26.4179V12.1856H28.5711V10.7082H26.4179V8.86647H28.7367V7.38909" fill="white"/>
</svg>
