<svg width="114" height="114" viewBox="0 0 114 114" fill="none" xmlns="http://www.w3.org/2000/svg">
<circle cx="57" cy="57" r="57" fill="#FFF0E6"/>
<path d="M75.1499 46.5051L58.5449 36.9051C57.5849 36.3651 56.4149 36.3651 55.4549 36.9201L38.8649 46.5051C38.6209 46.6471 38.4245 46.8583 38.3006 47.112C38.1768 47.3656 38.1309 47.6504 38.1689 47.9301H38.1449V51.7401C38.1449 52.0626 38.2529 52.3851 38.4689 52.6431C37.0874 53.4711 36.0794 54.9591 36.0449 57.1101C36.0764 59.0841 36.9314 60.5001 38.1449 61.3596V64.4151C38.1449 64.8951 38.3849 65.3751 38.8649 65.6451L55.4699 75.2451C56.4149 75.8001 57.5999 75.8001 58.5449 75.2451L75.1499 65.6451C75.6299 65.3751 75.8699 64.8951 75.8699 64.4151V61.3656C77.0849 60.5076 77.9459 59.0886 77.9849 57.1101C77.9369 54.9651 76.9244 53.4771 75.5399 52.6491C75.7539 52.3946 75.8708 52.0726 75.8699 51.7401V47.9301H75.8474C75.8853 47.6502 75.8392 47.3654 75.7151 47.1117C75.5909 46.858 75.3942 46.6469 75.1499 46.5051ZM39.7214 47.7426L56.2064 38.2176C56.6999 37.9326 57.3014 37.9296 57.8024 38.2086L74.2934 47.7426L57.7934 57.2826L57.7859 57.2871C57.3089 57.5661 56.7059 57.5661 56.2289 57.2871L39.7214 47.7426ZM39.1949 53.1606L55.4699 62.5701C56.4149 63.1251 57.5999 63.1251 58.5449 62.5701L74.8049 53.1696L75.1349 53.3601C76.0799 53.9151 76.0799 55.2801 75.1349 55.8351L58.5299 65.4351C57.5849 65.9901 56.3999 65.9901 55.4549 65.4351L38.8499 55.8351C38.634 55.7087 38.4549 55.5279 38.3304 55.3108C38.2059 55.0937 38.1405 54.8478 38.1405 54.5976C38.1405 54.3474 38.2059 54.1015 38.3304 53.8844C38.4549 53.6673 38.634 53.4865 38.8499 53.3601L39.1949 53.1606ZM39.4964 62.0436C40.2966 62.3126 41.1455 62.4052 41.9849 62.3151C42.7799 62.2251 43.5299 62.6451 43.8749 63.3651C44.9999 65.7501 47.7449 66.6501 50.0999 66.0501C50.8799 65.8551 51.6899 66.1551 52.1099 66.8151C52.4944 67.7107 53.1173 68.4837 53.9108 69.0497C54.7043 69.6157 55.6379 69.9531 56.6099 70.0251H56.6249C56.7449 70.0401 56.8649 70.0401 56.9999 70.0401H57.0299C57.1499 70.0401 57.2699 70.0401 57.4049 70.0251H57.4199C58.3919 69.9531 59.3256 69.6157 60.1191 69.0497C60.9125 68.4837 61.5355 67.7107 61.9199 66.8151C62.3399 66.1551 63.1499 65.8551 63.9299 66.0501C66.2699 66.6501 69.0299 65.7501 70.1549 63.3651C70.4999 62.6451 71.2499 62.2251 72.0449 62.3151C72.849 62.4011 73.6621 62.3194 74.4329 62.0751L73.0154 62.8956C72.7419 63.9643 72.256 64.967 71.5867 65.844C70.9175 66.7209 70.0785 67.4542 69.1199 68.0001C67.0505 69.1936 64.6151 69.5864 62.2754 69.1041L58.5299 71.2701C57.5849 71.8251 56.3999 71.8251 55.4549 71.2701L51.7124 69.1071C49.3762 69.5854 46.9456 69.1916 44.8799 68.0001C43.9227 67.4552 43.0847 66.7235 42.4158 65.8484C41.7468 64.9734 41.2606 63.9728 40.9859 62.9061L39.4964 62.0436Z" fill="#FC8A22"/>
</svg>
