<svg width="76" height="72" viewBox="0 0 76 72" fill="none" xmlns="http://www.w3.org/2000/svg">
<path d="M75.5174 28.6893C75.8929 26.812 74.391 24.5592 72.5137 24.5592L51.112 21.5554L41.3498 2.03111C40.9744 1.28017 40.5989 0.904705 39.848 0.529237C37.9706 -0.597167 35.7178 0.153769 34.5914 2.03111L25.2047 21.5554L3.80304 24.5592C2.67664 24.5592 1.9257 24.9347 1.55023 25.6856C0.0483602 27.1875 0.0483602 29.4403 1.55023 30.9421L16.9444 45.9609L13.1897 67.3625C13.1897 68.1135 13.1897 68.8644 13.5652 69.6153C14.6916 71.4927 16.9444 72.2436 18.8218 71.1172L37.9706 60.9796L57.1195 71.1172C57.495 71.4927 58.2459 71.4927 58.9968 71.4927C59.3723 71.4927 59.3723 71.4927 59.7478 71.4927C61.6251 71.1172 63.127 69.2399 62.7515 66.9871L58.9968 45.5854L74.391 30.5667C75.142 30.1912 75.5174 29.4403 75.5174 28.6893Z" fill="#FFC043"/>
</svg>
