<svg width="24" height="24" viewBox="0 0 24 24" fill="none" xmlns="http://www.w3.org/2000/svg">
<path d="M12 23C18.0751 23 23 18.0751 23 12C23 5.92487 18.0751 1 12 1C5.92487 1 1 5.92487 1 12C1 18.0751 5.92487 23 12 23Z" fill="#000100"/>
<path fill-rule="evenodd" clip-rule="evenodd" d="M5.97748 11.8849C9.1842 10.4878 11.3225 9.56675 12.3924 9.12173C15.4472 7.85113 16.082 7.63041 16.4957 7.62312C16.5867 7.62152 16.7902 7.64407 16.922 7.75101C17.0333 7.84131 17.0639 7.96329 17.0785 8.04891C17.0932 8.13452 17.1114 8.32955 17.0969 8.48194C16.9314 10.2213 16.2151 14.4423 15.8507 16.3904C15.6965 17.2147 15.3929 17.4911 15.0989 17.5181C14.4602 17.5769 13.9751 17.096 13.3564 16.6904C12.3882 16.0558 11.8413 15.6607 10.9016 15.0414C9.81551 14.3258 10.5195 13.9324 11.1385 13.2895C11.3005 13.1213 14.115 10.5613 14.1695 10.3291C14.1763 10.3 14.1826 10.1917 14.1183 10.1346C14.054 10.0774 13.959 10.097 13.8905 10.1125C13.7934 10.1345 12.2468 11.1568 9.25066 13.1793C8.81166 13.4807 8.41402 13.6276 8.05775 13.6199C7.665 13.6114 6.90949 13.3978 6.34785 13.2153C5.65897 12.9913 5.11147 12.873 5.15914 12.4927C5.18398 12.2946 5.45675 12.092 5.97748 11.8849Z" fill="white"/>
</svg>
